:SAMPLES-PER-SECOND 30
:FULLY-SPECIFIED
:DEGREES
891
root  -0.1827 34.2085 -20.5932 26.0016 83.9502 14.1017
LeftUpLeg  -17.6737 14.278 -6.17757
LeftLeg  9.08364 2.80468 0.264058
LeftFoot  2.77168 -0.000934684 0.0207282
LeftToes  -11.1906 7.65994e-007 1.12379e-007
Spine  5.90639 -2.41919 0.261375
Spine1  11.2694 -5.69733 1.4821
RightShoulder  0.0164661 4.92936 -2.93977
RightArm  14.9391 -18.6569 75.9814
RightForeArm  64.1978 79.4506 72.9223
RightHand  -0.912658 -6.56218 16.1729
LeftShoulder1  0.0988832 1.6665 2.91965
LeftArm  5.83954 -33.1331 -83.0254
LeftForeArm  133.015 -54.0528 -165.606
LeftHand  0.94176 11.7775 8.7367
HEad  -1.50536 -11.3939 -0.750511
RightUpLeg  -22.5698 -6.14083 -3.42253
RightLeg  8.25677 15.1234 1.20109
RightFoot  10.9456 -0.231412 2.79233
RightToes  -29.7546 -0.143369 -0.251496
892
root  -0.103709 34.215 -20.5854 24.9998 84.0673 13.4041
LeftUpLeg  -17.1746 14.0515 -5.92129
LeftLeg  9.02768 2.9859 0.278237
LeftFoot  2.66139 -0.00133405 0.02948
LeftToes  -11.292 7.65994e-007 1.12379e-007
Spine  5.74643 -2.33308 0.224697
Spine1  10.9755 -5.49026 1.36643
RightShoulder  0.0150046 4.90141 -2.93843
RightArm  14.8952 -18.8393 76.0174
RightForeArm  63.5751 79.4191 72.3554
RightHand  -0.920312 -6.61734 16.1725
LeftShoulder1  0.095025 1.65614 2.89017
LeftArm  5.54697 -33.0907 -83.102
LeftForeArm  133.381 -53.857 -165.709
LeftHand  0.935842 11.6715 8.76211
HEad  -2.13155 -10.9127 -0.842
RightUpLeg  -22.0779 -6.08722 -3.39565
RightLeg  8.2073 15.0068 1.17913
RightFoot  10.8197 -0.223892 2.74122
RightToes  -29.9075 -0.143828 -0.251971
893
root  -0.0259667 34.22 -20.5751 24.4564 84.1006 13.0391
LeftUpLeg  -16.8797 14.0534 -5.7989
LeftLeg  9.10118 3.01132 0.284499
LeftFoot  2.49779 -0.00119506 0.0298605
LeftToes  -11.2607 7.65994e-007 1.12379e-007
Spine  5.53763 -2.22691 0.175245
Spine1  10.5988 -5.22301 1.20016
RightShoulder  0.0132564 4.84572 -2.95362
RightArm  14.9267 -18.9799 76.0731
RightForeArm  62.8278 79.3787 71.6588
RightHand  -0.912009 -6.54393 16.2054
LeftShoulder1  0.0893217 1.88297 2.71448
LeftArm  5.50716 -33.1231 -83.2614
LeftForeArm  133.747 -53.6251 -165.828
LeftHand  0.928104 11.5417 8.78892
HEad  -2.79129 -10.3874 -1.01416
RightUpLeg  -21.774 -6.01888 -3.38396
RightLeg  8.25385 14.8618 1.17998
RightFoot  10.6224 -0.213156 2.66995
RightToes  -29.8675 -0.144226 -0.252382
894
root  0.058995 34.2276 -20.5619 23.3618 84.1544 12.2303
LeftUpLeg  -16.4106 13.9103 -5.55727
LeftLeg  9.09153 3.16122 0.298164
LeftFoot  2.35803 -0.00129732 0.0339586
LeftToes  -11.2828 7.65994e-007 1.12379e-007
Spine  5.37744 -2.13278 0.139698
Spine1  10.305 -4.99773 1.08534
RightShoulder  0.0118553 4.85434 -2.94691
RightArm  14.8203 -19.1364 76.1234
RightForeArm  62.0074 79.3298 70.8564
RightHand  -0.91827 -6.58043 16.2253
LeftShoulder1  0.0853654 1.98613 2.62817
LeftArm  5.36465 -33.0715 -83.3145
LeftForeArm  134.206 -53.3661 -165.961
LeftHand  0.927268 11.4296 8.87067
HEad  -3.43405 -9.81925 -1.08862
RightUpLeg  -21.3098 -5.80513 -3.38201
RightLeg  8.22501 14.6111 1.15315
RightFoot  10.5002 -0.203815 2.59517
RightToes  -30.0522 -0.144567 -0.252732
895
root  0.147004 34.2344 -20.5458 22.1272 84.2562 11.2825
LeftUpLeg  -15.9492 13.7156 -5.28517
LeftLeg  9.10482 3.31596 0.313568
LeftFoot  2.23538 -0.00142148 0.0383387
LeftToes  -11.3755 7.65994e-007 1.12379e-007
Spine  5.22364 -2.05639 0.118591
Spine1  10.0181 -4.81704 1.00879
RightShoulder  0.0105485 4.81043 -2.95244
RightArm  14.7133 -19.3018 76.191
RightForeArm  61.2157 79.2775 70.0411
RightHand  -0.921975 -6.58185 16.2851
LeftShoulder1  0.0820754 2.00029 2.55294
LeftArm  5.10588 -33.0263 -83.2732
LeftForeArm  134.616 -53.1113 -166.089
LeftHand  0.921018 11.3198 8.89781
HEad  -4.07709 -9.08365 -1.12503
RightUpLeg  -20.7965 -5.53354 -3.36946
RightLeg  8.14283 14.3015 1.10876
RightFoot  10.3533 -0.192587 2.50289
RightToes  -30.0307 -0.144855 -0.253026
896
root  0.235363 34.2406 -20.5269 21.2587 84.3635 10.674
LeftUpLeg  -15.5146 13.5335 -5.05613
LeftLeg  9.12019 3.45085 0.327282
LeftFoot  2.08884 -0.00141457 0.0405968
LeftToes  -11.3093 7.65994e-007 1.12379e-007
Spine  5.07866 -1.99612 0.101544
Spine1  9.74788 -4.66813 0.938727
RightShoulder  0.0093351 4.7708 -2.97447
RightArm  14.7057 -19.4324 76.2222
RightForeArm  60.6135 79.2438 69.5349
RightHand  -0.928381 -6.6215 16.2994
LeftShoulder1  0.078819 2.0837 2.45059
LeftArm  4.76238 -33.0411 -83.3228
LeftForeArm  135.038 -52.8997 -166.194
LeftHand  0.914064 11.1289 8.9861
HEad  -4.84596 -8.22315 -1.13938
RightUpLeg  -20.3466 -5.38832 -3.3502
RightLeg  8.12766 14.0865 1.08868
RightFoot  10.192 -0.182811 2.42715
RightToes  -30.1491 -0.145094 -0.253267
897
root  0.321196 34.2453 -20.5082 20.7159 84.4153 10.2939
LeftUpLeg  -15.1803 13.4413 -4.90482
LeftLeg  9.10898 3.5127 0.332468
LeftFoot  1.97611 -0.00135626 0.0419446
LeftToes  -11.3917 7.65994e-007 1.12379e-007
Spine  4.90822 -1.91999 0.0741396
Spine1  9.43166 -4.48196 0.843193
RightShoulder  0.00822125 4.75126 -2.985
RightArm  14.7598 -19.5732 76.2273
RightForeArm  60.1747 79.2156 69.1238
RightHand  -0.917364 -6.53953 16.3078
LeftShoulder1  0.0749973 2.20583 2.31099
LeftArm  4.38656 -33.0878 -83.4173
LeftForeArm  135.495 -52.6482 -166.318
LeftHand  0.909782 10.9895 9.06075
HEad  -5.62085 -7.27123 -1.08815
RightUpLeg  -20.0739 -5.42657 -3.3028
RightLeg  8.24244 14.0821 1.11644
RightFoot  9.97491 -0.174711 2.37919
RightToes  -30.2946 -0.145286 -0.25346
